<?xml version="1.0" encoding="UTF-8" standalone="no"?>
<svg
   xmlns:dc="http://purl.org/dc/elements/1.1/"
   xmlns:cc="http://creativecommons.org/ns#"
   xmlns:rdf="http://www.w3.org/1999/02/22-rdf-syntax-ns#"
   xmlns:svg="http://www.w3.org/2000/svg"
   xmlns="http://www.w3.org/2000/svg"
   id="svg8"
   version="1.1"
   viewBox="0 0 210 297"
   height="297mm"
   width="210mm">
  <defs
     id="defs2"><style
   type="text/css"
   id="style815">
   <![CDATA[
    .fil3 {fill:#201E1E}
    .fil0 {fill:#FEFEFE}
    .fil1 {fill:#AB3235}
    .fil5 {fill:#373435;fill-rule:nonzero}
    .fil4 {fill:#AB3235;fill-rule:nonzero}
    .fil6 {fill:#F2B133;fill-rule:nonzero}
    .fil2 {fill:url(#id6)}
   ]]>
  </style>
<mask
   id="id0">
  <linearGradient
   id="id1"
   gradientUnits="userSpaceOnUse"
   x1="1743.14"
   y1="3925.47"
   x2="1743.14"
   y2="3479.11">
   <stop
   offset="0"
   style="stop-opacity:1; stop-color:white"
   id="stop817" />

   <stop
   offset="1"
   style="stop-opacity:0; stop-color:white"
   id="stop819" />

  </linearGradient>

     <rect
   style="fill:url(#id1)"
   x="1593"
   y="3471"
   width="300"
   height="462"
   id="rect822" />

    </mask>
<mask
   id="id2">
  <linearGradient
   id="id3"
   gradientUnits="userSpaceOnUse"
   x1="2294.62"
   y1="3924.53"
   x2="2294.62"
   y2="3411.49">
   <stop
   offset="0"
   style="stop-opacity:1; stop-color:white"
   id="stop825" />

   <stop
   offset="1"
   style="stop-opacity:0; stop-color:white"
   id="stop827" />

  </linearGradient>

     <rect
   style="fill:url(#id3)"
   x="2166"
   y="3403"
   width="257"
   height="530"
   id="rect830" />

    </mask>
<mask
   id="id4">
  <linearGradient
   id="id5"
   gradientUnits="userSpaceOnUse"
   x1="3103.45"
   y1="3924.89"
   x2="3103.45"
   y2="3479.61">
   <stop
   offset="0"
   style="stop-opacity:1; stop-color:white"
   id="stop833" />

   <stop
   offset="1"
   style="stop-opacity:0; stop-color:white"
   id="stop835" />

  </linearGradient>

     <rect
   style="fill:url(#id5)"
   x="2915"
   y="3472"
   width="377"
   height="461"
   id="rect838" />

    </mask>
<linearGradient
   id="id6"
   gradientUnits="userSpaceOnUse"
   x1="2398.86"
   y1="3502.67"
   x2="2097.69"
   y2="2586.05">
   <stop
   offset="0"
   style="stop-color:#FFCC29"
   id="stop841" />

   <stop
   offset="1"
   style="stop-color:#FEFEFE"
   id="stop843" />

  </linearGradient>

  
  
  
 </defs>
  <metadata
     id="metadata5">
    <rdf:RDF>
      <cc:Work
         rdf:about="">
        <dc:format>image/svg+xml</dc:format>
        <dc:type
           rdf:resource="http://purl.org/dc/dcmitype/StillImage" />
        <dc:title></dc:title>
      </cc:Work>
    </rdf:RDF>
  </metadata>
  <g
     id="layer1">
    <g
       transform="matrix(0.02704848,0,0,0.02704848,23.056553,50.181555)"
       id="_434880192"
       style="clip-rule:evenodd;fill-rule:evenodd;image-rendering:optimizeQuality;shape-rendering:geometricPrecision;text-rendering:geometricPrecision">
   <path
   style="fill:#ab3235"
   class="fil1"
   d="m 2248,2192 c 471,0 852,382 852,852 0,471 -382,852 -852,852 -471,0 -852,-382 -852,-852 0,-471 382,-852 852,-852 z"
   id="path851" />

   <path
   style="fill:url(#id6)"
   class="fil2"
   d="m 2248,2280 c 422,0 764,342 764,764 0,422 -342,764 -764,764 -422,0 -764,-342 -764,-764 0,-422 342,-764 764,-764 z"
   id="path853" />

   <path
   style="fill:#201e1e"
   class="fil3"
   d="m 2457,2091 c 0,0 -106,-47 -180,-5 -73,43 -202,28 -202,28 0,0 78,43 146,36 69,-7 23,-45 148,-9 57,16 87,26 109,30 35,19 69,38 89,53 l -14,22 c 0,0 18,8 47,12 10,13 19,27 26,38 -37,-12 -104,-28 -148,-13 -64,21 -151,87 -181,46 -30,-42 -169,-50 -163,-35 6,15 43,25 -39,44 -83,19 -203,23 -172,33 31,10 82,10 -1,27 -83,17 -142,4 -142,4 0,0 116,23 180,6 64,-17 175,-48 191,-33 15,15 26,60 116,19 14,-6 27,-12 38,-16 55,37 150,103 208,156 -8,1 -17,3 -25,5 -119,27 -102,31 -194,12 -92,-19 -160,16 -160,16 l -94,43 c 0,0 168,-8 294,-4 116,4 189,14 234,-6 26,41 44,87 55,119 -13,297 -31,826 -31,826 l 86,7 -14,-699 c 10,-27 44,-113 96,-176 42,-50 167,-135 243,-184 87,0 216,-3 263,-23 73,-31 174,-43 235,-31 61,12 135,-47 135,-47 0,0 -192,31 -262,-24 -70,-55 -112,21 -178,43 -65,21 -51,21 -96,-19 -45,-40 -79,-5 -116,17 -35,20 -168,-7 -223,-14 49,-36 162,-91 233,-123 43,3 97,12 143,23 84,20 282,-22 282,-22 0,0 7,-16 -84,-10 -91,6 -81,-16 -71,-40 10,-24 -156,-46 -156,-46 0,0 0,0 -37,14 -37,14 -24,-10 -42,-18 -18,-8 -95,20 -122,26 -27,6 -131,24 -190,-14 -21,-13 -43,-15 -64,-12 5,-10 20,-37 43,-56 21,-18 90,-51 122,-65 72,4 117,11 144,-13 30,-27 131,-50 131,-50 0,0 -111,-31 -194,-4 -83,27 -72,31 -136,12 -64,-19 -112,16 -112,16 l -3,2 -1,-46 c 10,-2 18,-7 18,-7 l -18,-6 v -16 16 l -28,-9 c 0,0 -48,-19 -75,-10 -27,9 -65,37 -77,19 -13,-18 -72,-21 -69,-15 2,6 18,11 -17,19 -35,8 -86,10 -73,14 13,4 35,4 0,12 -35,7 -61,2 -61,2 0,0 49,10 76,3 27,-7 75,-20 81,-14 6,6 11,26 49,8 l 4,-2 c 19,9 49,25 78,40 19,10 37,20 52,31 l -3,2 h 5 c 22,15 39,32 50,53 -12,-3 -26,-8 -44,-16 -53,-24 -139,-28 -137,2 z m 89,438 c 28,-2 57,-3 84,-2 l 1,-23 c -103,-29 -126,-23 -126,-23 l 128,-34 c 1,-34 2,-67 3,-101 -38,11 -84,58 -94,69 -13,15 -104,-10 -128,-33 -19,-17 -43,-26 -94,-11 34,17 84,48 157,102 27,20 50,38 69,55 z m 110,0 c 61,4 107,13 107,13 0,0 -54,9 -106,22 l 4,180 c 15,-28 57,-85 177,-168 57,-40 100,-67 133,-85 -32,0 -52,-1 -52,-1 0,0 -130,-78 -110,-33 19,44 -33,88 -146,57 -2,4 -4,8 -6,11 v 5 z m -28,43 c -10,3 -20,6 -29,10 11,13 20,24 27,34 1,-14 1,-29 2,-44 z m 20,-434 v -17 c 15,-8 24,-13 24,-13 0,0 -8,1 -24,-1 l -1,-58 c 41,-2 96,-3 142,-1 6,0 12,1 17,1 -16,6 -40,16 -76,33 -56,28 -75,47 -81,55 z m -186,-162 c 30,-12 43,-8 52,0 10,10 49,20 55,14 6,-6 38,-39 53,-28 6,4 14,5 21,3 l -1,47 -45,29 c -12,-7 -26,-16 -44,-25 -45,-23 -74,-35 -91,-41 z m 148,74 c 9,0 20,-1 32,-1 l -1,30 c -5,-6 -14,-16 -32,-29 z m 49,391 -5,1 -2,-97 c 5,0 10,2 14,5 37,25 95,-8 95,-8 l -109,-35 h -1 v -13 l 2,-12 c 0,0 0,-2 -3,-7 v -15 c 8,-1 17,-2 25,-4 67,-16 97,-4 145,14 48,18 66,30 94,10 9,-6 27,-9 49,-10 -33,13 -78,33 -136,62 -103,51 -148,88 -168,110 z m -150,-269 c 13,-2 27,-6 49,-14 35,-12 63,-24 83,-34 l -1,49 c -33,8 -59,28 -59,28 l -5,8 c -17,-10 -37,-22 -61,-35 l -5,-3 z m 300,-324 c 0,0 -84,-26 -159,-7 -75,19 -73,-34 -119,-7 -46,26 -127,49 -127,49 0,0 63,-11 153,4 90,15 115,-30 182,-7 67,22 136,-4 136,-4 l -67,-26 z"
   id="path855" />

   <path
   style="fill:#ab3235;fill-rule:nonzero"
   class="fil4"
   d="m 795,2748 -30,28 8,8 28,-30 z m 784,796 c 0,-10 -6,-38 -18,-84 -12,-46 -20,-70 -24,-72 -26,-22 -48,-36 -66,-46 -14,12 -30,18 -48,18 -8,0 -52,-6 -66,-6 l -16,8 v 196 c 0,10 8,80 24,212 0,14 -26,30 -48,44 -12,18 -20,34 -26,44 -8,-8 -12,-16 -12,-26 -14,14 -32,30 -58,48 -24,16 -40,24 -46,24 -10,0 -2,-8 -12,-8 6,0 -32,16 -116,46 -82,30 -150,46 -204,46 -74,0 -142,-30 -202,-88 -58,-60 -88,-126 -88,-200 0,-48 14,-136 42,-263 2,-10 14,-32 32,-64 18,-28 26,-48 26,-62 0,-6 -2,-10 -4,-16 l 12,-12 c 18,-14 44,-50 80,-106 38,-56 70,-94 98,-114 34,-44 60,-78 78,-100 38,-18 66,-32 86,-42 30,-20 58,-40 86,-60 40,-28 74,-42 102,-42 42,0 76,20 100,58 16,26 30,64 44,118 14,54 24,86 32,96 h 22 c 20,-12 46,-22 78,-32 54,-14 74,-24 74,-88 0,-42 -14,-86 -44,-132 -28,-46 -62,-76 -100,-94 -116,-50 -202,-76 -258,-74 -50,2 -84,4 -106,10 -26,8 -46,14 -58,18 -2,2 -6,18 -20,18 -10,0 -24,-8 -26,-8 -22,6 -42,34 -64,84 -6,-8 -16,-18 -16,-20 8,-8 12,-16 12,-24 -28,16 -48,28 -62,36 -8,12 -14,22 -18,28 -2,-2 -2,-4 0,-8 0,-2 -4,-4 -10,-4 -8,0 -40,30 -50,32 0,6 2,16 8,34 2,10 0,18 -6,24 -12,-14 -18,-20 -18,-20 v -26 c -18,20 -32,40 -42,58 10,0 30,-14 32,-14 -6,-6 -8,-12 -2,-18 2,0 8,4 14,10 -20,32 -38,58 -56,78 -20,38 -36,70 -46,92 -18,4 -34,10 -46,16 -2,18 -4,38 -6,58 -6,24 -16,40 -30,46 v 42 c -2,-4 -8,-6 -14,-6 0,14 -6,24 -18,32 -2,-2 -2,-8 -2,-18 -16,0 -24,6 -26,48 0,20 -4,36 -10,46 2,22 -4,48 -22,78 4,0 10,4 18,10 l -10,10 c -2,0 -2,-12 -12,-12 -10,0 -16,2 -16,8 -14,66 -20,98 -20,92 v 188 c 48,102 74,154 76,160 42,70 88,120 140,146 30,30 58,64 80,64 10,0 10,-6 20,-6 8,0 32,32 42,32 14,0 20,6 22,6 0,-6 4,-12 10,-18 18,16 34,24 52,24 2,0 10,0 20,-2 6,-2 12,-2 16,0 -4,4 -6,8 -6,14 16,-6 36,-10 62,-8 34,2 52,4 58,4 l 18,-20 c 18,8 30,12 38,12 14,0 14,-16 16,-16 34,-10 58,-18 74,-24 34,-22 56,-40 66,-50 6,10 10,16 12,20 66,-60 110,-100 136,-122 0,-2 8,-2 24,-2 14,40 63,387 91,498 26,102 48,180 66,232 22,-74 32,-114 34,-124 12,-16 18,-24 18,-22 0,-10 -2,-24 -2,-46 v -44 c 0,-24 -27,-331 -25,-377 2,-48 4,-84 4,-108 0,-22 -12,-78 -12,-96 2,-44 10,-100 20,-170 12,-70 18,-104 18,-102 z M 747,2907 c -14,22 -34,46 -56,68 8,-40 22,-68 40,-84 z m -24,120 -10,-4 8,-22 h 10 z m -88,96 v -24 h 12 v 24 z m 10,78 -10,-4 10,-16 8,2 z m 605,697 -8,-4 8,-18 10,4 z m -60,50 -6,-30 h 10 l 8,30 z m -88,26 -8,-4 8,-16 8,4 z m 4,64 -6,-44 h 10 l 8,44 z m -210,20 -10,-2 8,-22 h 10 z"
   id="path857" />

   <path
   style="fill:#201e1e"
   class="fil3"
   d="m 1101,3781 c 0,0 218,-70 409,-136 -49,44 -73,79 -96,113 50,-54 114,-119 183,-143 86,-30 157,-57 186,-72 97,-50 170,-151 438,-138 143,7 211,44 238,66 -19,14 -68,90 -88,112 80,-69 136,-109 228,-142 80,-28 170,-30 249,-27 119,4 214,40 291,95 33,23 144,105 327,121 14,1 -125,43 -232,97 82,-27 218,-65 291,-83 29,-7 88,-21 138,-17 155,13 504,99 763,175 225,66 1873,126 1778,126 l -5957,2 853,-149 z"
   id="path859" />

   <g
   id="g865">
    <path
   style="fill:#373435;fill-rule:nonzero"
   class="fil5"
   d="m 1708,4227 h 283 v 38 h -119 v 296 h -45 v -296 h -119 z m 462,31 c -33,0 -59,12 -78,37 -19,25 -29,58 -29,100 0,42 10,75 29,100 19,24 45,37 78,37 33,0 59,-12 78,-37 19,-25 29,-58 29,-100 0,-42 -10,-76 -29,-100 -19,-24 -45,-37 -78,-37 z m 0,-37 c 47,0 84,16 112,47 28,31 42,74 42,126 0,53 -14,95 -42,126 -28,31 -66,47 -112,47 -47,0 -85,-16 -113,-47 -28,-31 -42,-73 -42,-126 0,-53 14,-95 42,-126 28,-31 66,-47 113,-47 z m 220,6 h 45 v 203 c 0,36 6,62 19,77 13,16 34,24 63,24 29,0 50,-8 63,-24 13,-16 19,-42 19,-77 v -203 h 45 v 209 c 0,44 -11,77 -32,99 -22,22 -53,33 -95,33 -42,0 -74,-11 -96,-33 -22,-22 -32,-55 -32,-99 v -209 z m 499,178 c 10,3 19,10 28,21 9,11 18,26 28,44 l 46,91 h -49 l -43,-86 c -11,-22 -22,-37 -32,-45 -10,-7 -24,-11 -42,-11 h -49 v 141 h -45 v -334 h 102 c 38,0 67,8 86,24 19,16 28,40 28,72 0,21 -5,39 -15,52 -10,14 -24,24 -43,29 z m -113,-140 v 119 h 57 c 22,0 38,-5 49,-15 11,-10 17,-25 17,-44 0,-20 -6,-34 -17,-44 -11,-10 -28,-15 -49,-15 h -57 z m 474,-26 v 44 c -17,-8 -33,-14 -49,-18 -15,-4 -30,-6 -44,-6 -25,0 -44,5 -57,14 -13,10 -20,23 -20,41 0,15 4,26 13,33 9,8 26,14 51,18 l 27,6 c 34,6 59,18 75,34 16,16 24,38 24,65 0,32 -11,57 -33,74 -22,17 -54,25 -95,25 -16,0 -33,-2 -50,-5 -18,-4 -36,-9 -55,-16 v -47 c 18,10 36,18 54,23 18,5 35,8 52,8 26,0 46,-5 60,-15 14,-10 21,-25 21,-43 0,-16 -5,-29 -15,-39 -10,-9 -27,-16 -50,-21 l -28,-5 c -34,-7 -58,-17 -73,-31 -15,-14 -23,-34 -23,-60 0,-30 10,-53 31,-70 21,-17 50,-26 86,-26 16,0 32,1 48,4 16,3 33,7 50,13 z m 482,-11 h 283 v 38 h -119 v 296 h -45 v -296 h -119 z m 485,178 c 10,3 19,10 28,21 9,11 18,26 28,44 l 46,91 h -49 l -43,-86 c -11,-22 -22,-37 -32,-45 -10,-7 -24,-11 -42,-11 h -49 v 141 h -45 v -334 h 102 c 38,0 67,8 86,24 19,16 28,40 28,72 0,21 -5,39 -15,52 -10,14 -24,24 -43,29 z m -113,-140 v 119 h 57 c 22,0 38,-5 49,-15 11,-10 17,-25 17,-44 0,-20 -6,-34 -17,-44 -11,-10 -28,-15 -49,-15 h -57 z m 367,7 -61,166 h 123 z m -26,-45 h 51 l 127,334 h -47 l -30,-86 h -151 l -30,86 h -48 z m 284,334 -128,-334 h 47 l 106,282 106,-282 h 47 l -127,334 z m 227,-334 h 211 v 38 h -166 v 99 h 159 v 38 h -159 v 121 h 170 v 38 h -216 v -334 z m 290,0 h 45 v 296 h 163 v 38 h -208 z"
   id="path861" />

    <path
   style="fill:#f2b133;fill-rule:nonzero"
   class="fil6"
   d="m 3500,4395 c -21,7 -38,19 -51,36 -12,17 -19,36 -19,58 0,32 10,57 30,76 20,19 47,28 81,28 37,0 69,-9 94,-26 25,-17 38,-37 38,-61 0,-10 -4,-17 -11,-21 -7,-4 -18,-7 -33,-7 -12,0 -22,1 -32,4 -10,3 -18,7 -25,13 -3,2 -7,7 -11,13 -5,6 -9,10 -12,10 -1,0 -3,-1 -4,-2 -1,-1 -2,-3 -2,-5 0,-4 2,-9 6,-16 4,-7 9,-14 16,-20 10,-10 20,-18 31,-24 11,-5 23,-9 37,-10 9,-1 21,-1 36,-1 28,-1 46,-3 55,-7 7,-4 13,-9 19,-16 5,-7 9,-11 11,-11 2,0 3,1 4,3 1,2 2,4 2,7 0,19 -5,35 -15,46 -10,11 -24,17 -41,17 -3,0 -6,0 -9,-1 -3,0 -6,-1 -10,-2 2,5 4,11 5,16 1,5 2,10 2,15 0,33 -16,60 -49,83 -32,22 -73,34 -122,34 -44,0 -80,-11 -108,-34 -28,-22 -42,-51 -42,-86 0,-30 10,-55 30,-77 20,-22 48,-37 83,-45 -6,-7 -11,-15 -14,-24 -3,-9 -5,-18 -5,-28 0,-24 11,-45 33,-63 22,-18 49,-27 81,-27 24,0 44,4 60,11 16,7 24,17 24,28 0,11 -2,22 -7,32 -5,10 -10,15 -14,15 -3,0 -6,-3 -11,-8 -2,-3 -5,-6 -6,-8 -10,-11 -20,-19 -29,-23 -10,-5 -21,-7 -33,-7 -21,0 -39,6 -54,18 -15,12 -23,27 -23,44 0,8 2,15 4,21 3,6 7,10 13,13 7,-1 14,-1 21,-2 7,0 14,-1 21,-1 16,0 28,1 35,4 7,3 10,7 10,13 0,6 -3,10 -8,13 -5,3 -13,4 -24,4 -9,0 -18,-1 -28,-3 -9,-2 -19,-6 -30,-10 z"
   id="path863" />

   </g>

   <path
   style="fill:#ab3235;fill-rule:nonzero"
   class="fil4"
   d="m 4062,3050 c -5,-2 -23,-28 -30,-28 -104,0 -173,9 -209,28 -5,12 -11,21 -14,27 l 74,48 c 47,31 74,46 81,46 h 35 c 5,-19 11,-34 14,-42 18,-18 27,-28 28,-32 2,-11 0,-18 -2,-23 12,-12 19,-21 21,-23 z m 356,-219 -14,13 5,6 16,-13 z m -29,7 c -8,-10 -33,-22 -73,-42 -9,-1 -29,5 -38,4 -9,-1 -20,-20 -29,-20 -7,-1 -15,2 -24,9 -2,-2 -5,-11 -10,-17 -10,8 -14,17 -15,26 9,1 14,3 16,5 l -25,2 c -10,-17 -16,-30 -18,-41 -5,0 -11,3 -19,9 l -13,-23 c -6,7 -12,10 -19,9 -7,-1 -32,-12 -41,-12 -25,-4 -54,-6 -88,-9 -94,-24 -142,-35 -147,-35 -7,-1 -18,2 -35,8 l -12,-12 c -469,-37 -235,-1 -475,-12 -22,0 -51,1 -87,4 -35,3 -53,5 -55,5 -9,-1 -5,-6 -14,-7 -9,-1 -6,10 -15,10 -9,-1 -23,-7 -30,-8 -56,-4 -125,-1 -203,11 -10,8 -19,13 -32,12 7,24 13,41 16,54 46,40 83,68 113,87 l 22,25 c 8,10 15,16 20,16 16,1 83,-1 201,-6 120,-7 182,-9 183,-9 -1,16 -1,41 -1,76 1,34 0,56 -2,69 -8,46 -10,215 -7,282 5,109 21,359 22,405 0,9 16,28 15,36 0,4 -1,16 -5,36 -3,14 -4,25 -3,32 4,17 16,52 37,106 17,43 23,74 22,92 9,2 16,8 19,14 49,38 91,67 124,84 1,-9 5,-12 14,-12 -13,-61 -24,-105 -31,-136 -6,-10 -13,-17 -18,-23 -2,-38 -7,-89 -15,-155 -5,-44 -7,-100 -3,-167 -9,-6 -13,-14 -13,-23 1,-13 7,-21 20,-26 -10,-6 -17,-16 -16,-32 1,-16 5,-32 6,-48 2,-38 -9,-205 -8,-244 2,-49 9,-208 18,-252 0,-2 -14,-8 -13,-17 1,-9 17,-62 19,-83 24,-11 36,-15 37,-15 7,1 18,1 32,1 l 27,2 c 13,-6 13,-8 38,-21 2,2 1,11 10,12 9,1 60,-10 77,-8 67,3 119,6 157,9 13,-1 45,-18 52,-18 9,1 21,14 28,15 5,0 6,-9 51,-5 52,2 97,2 132,-4 l 17,-15 c 2,2 2,4 -1,7 -2,2 0,4 5,4 9,1 34,-15 41,-15 5,9 10,15 11,19 0,-2 8,-16 9,-25 0,-4 -3,-9 -10,-17 l 18,-2 c 5,8 6,13 6,17 14,1 23,2 25,4 v 0 z m -65,-7 1,-16 11,1 -1,16 z m -53,-10 -7,-4 8,-14 7,4 z m -12,-8 c -18,-1 -29,-2 -32,-4 5,0 13,-6 27,-18 5,6 6,13 6,22 z m -39,31 -11,-1 9,-25 9,1 z m -37,-7 c -5,-6 -10,-10 -19,-11 6,-5 11,-8 15,-8 3,9 4,15 4,18 z m -183,-18 1,-11 14,1 -1,11 z m -68,36 2,-20 9,1 -2,20 z m 2048,304 c 0,-9 -21,-51 -23,-58 -41,4 -65,5 -74,4 -4,9 -9,14 -16,14 -9,0 -14,-5 -23,-5 -12,0 -25,18 -35,55 -9,37 -19,53 -32,50 -39,-11 -74,-12 -108,-4 l 4,4 c 0,9 -7,12 -23,12 -9,0 -11,-7 -19,-7 -9,0 -27,11 -57,32 -30,19 -44,37 -44,50 0,9 11,27 11,28 5,71 41,147 103,230 51,60 104,120 157,182 32,41 48,65 48,78 0,14 -23,41 -25,64 -28,19 -50,35 -64,46 -12,14 -21,27 -27,35 -41,16 -76,25 -104,25 h -18 c -9,0 -14,-11 -14,-34 0,-2 2,-18 7,-48 5,-30 9,-51 7,-67 -7,-30 -14,-53 -21,-69 -80,150 -120,235 -120,258 0,7 14,18 42,32 l 42,27 c 27,16 42,23 48,23 9,0 4,-5 12,-5 2,0 12,4 28,12 18,9 28,14 32,14 7,0 39,-5 48,-5 34,0 55,-2 67,-7 41,-16 81,-46 122,-92 42,-46 64,-88 64,-126 0,-46 -18,-94 -51,-143 -16,-23 -51,-62 -106,-117 -53,-55 -90,-99 -111,-129 -35,-51 -53,-101 -53,-145 0,-14 4,-28 12,-44 11,-21 25,-32 41,-32 5,0 14,5 30,14 16,9 25,12 27,12 5,35 9,71 14,106 5,41 12,73 21,94 11,14 19,23 25,28 7,16 12,30 16,41 30,-19 46,-35 51,-46 0,-14 0,-25 -2,-34 23,-117 39,-203 50,-262 4,-14 11,-32 23,-53 12,-23 19,-35 19,-37 z m -1978,946 c -4,0 -7,-2 -11,-4 5,-9 7,-14 7,-16 -5,-5 -7,-14 -7,-30 -23,5 -37,9 -44,9 -5,0 -12,-12 -25,-37 -7,-16 -14,-30 -19,-44 -9,-14 -14,-23 -14,-27 v -32 c 2,-14 2,-25 2,-30 -2,0 -2,4 -11,4 -2,0 -2,-5 -2,-16 0,-2 4,-19 12,-53 -12,2 -19,4 -21,4 0,-4 2,-9 7,-14 h 14 v -16 c -4,0 -9,4 -14,9 -5,-19 -9,-34 -11,-42 7,-12 19,-32 28,-34 9,-69 16,-120 19,-154 12,-41 23,-71 32,-90 -2,-2 -5,-5 -9,-11 7,-16 12,-27 18,-34 19,-57 28,-85 30,-87 11,-16 16,-25 16,-25 0,-5 -4,-16 -12,-34 -11,-23 -18,-37 -19,-46 h -14 c -12,5 -19,9 -21,9 2,0 -14,-2 -48,-4 -28,-2 -46,-2 -55,0 -7,55 -12,87 -14,97 -34,106 -51,212 -53,318 0,9 -2,23 -4,46 -2,23 -4,35 -4,37 0,51 2,87 5,106 5,14 11,25 14,30 5,18 7,32 7,44 23,41 42,73 55,92 9,16 21,30 37,39 46,27 78,41 97,41 7,0 25,-7 30,-7 z m 980,11 c 0,-5 -4,-16 -12,-35 -9,-19 -12,-32 -14,-37 -16,-96 -27,-166 -34,-212 -12,-74 -19,-134 -23,-182 l -12,-271 c 0,-5 4,-19 11,-44 9,-27 12,-41 12,-46 0,-39 -27,-58 -78,-58 -48,0 -73,0 -78,2 -12,5 -21,12 -28,23 -2,41 -4,67 -9,78 -30,81 -48,131 -53,150 -2,0 4,-7 -9,-7 -5,0 -9,2 -11,7 -2,9 -2,12 -2,12 0,30 -18,57 -34,83 -4,16 -5,28 -5,37 l -7,-9 c 0,-5 4,-16 4,-18 -12,23 -19,35 -23,39 -2,-9 0,-39 4,-88 4,-60 5,-108 5,-142 0,-30 -2,-58 -4,-81 -4,-12 -21,-23 -53,-32 -30,-11 -55,-16 -73,-16 -9,0 -39,7 -44,7 2,4 4,9 4,14 0,19 -14,53 -42,101 -23,37 -44,73 -67,110 -9,18 -27,58 -51,120 -19,51 -39,90 -58,113 l -4,-138 c 9,-104 16,-182 25,-233 2,-16 21,-55 21,-62 0,-16 -16,-30 -48,-42 -27,-11 -48,-16 -65,-16 -34,0 -51,73 -51,218 0,44 2,76 5,96 -5,5 -9,14 -9,30 0,163 11,297 32,402 5,12 16,21 34,27 27,9 41,12 42,12 23,12 39,23 46,32 21,-53 37,-111 46,-175 5,-51 11,-104 16,-157 11,-87 19,-142 25,-166 9,-34 21,-67 41,-101 23,-42 42,-65 60,-67 v 239 c -5,5 -7,19 -5,46 2,12 4,35 9,69 5,27 7,42 7,48 0,37 11,85 34,147 34,0 50,23 48,23 9,0 2,-5 11,-5 -2,0 23,12 74,39 35,-97 55,-163 60,-193 12,-74 37,-166 73,-278 5,-16 14,-23 27,-23 2,57 7,122 18,198 4,28 12,92 28,189 5,-9 12,-18 21,-23 2,4 2,7 2,11 0,9 -14,21 -14,27 -2,25 0,42 2,51 12,74 23,117 34,129 35,44 83,65 143,67 v -35 z m 462,-485 c 0,-2 -4,-21 -9,-58 -5,-37 -7,-62 -7,-78 -2,-122 -5,-191 -11,-207 -12,-25 -21,-41 -28,-50 -14,-2 -60,-14 -67,-14 -30,0 -67,7 -110,19 -42,12 -76,27 -103,44 -83,168 -124,320 -124,458 0,60 7,111 21,152 11,16 19,28 28,37 9,19 16,37 18,50 44,48 73,74 85,80 21,9 37,14 50,16 0,-7 0,-12 2,-14 7,14 16,21 28,21 9,0 28,4 34,4 7,-9 12,-14 14,-19 5,11 12,16 21,16 9,0 37,-7 39,-9 5,0 2,-12 14,-12 4,0 5,2 5,4 0,2 2,2 7,2 27,0 39,-32 53,-58 2,-12 -4,-25 -12,-34 -44,34 -69,51 -74,51 -53,0 -96,-23 -129,-69 -28,-41 -42,-85 -42,-134 0,-5 0,-12 -2,-25 -2,-11 -2,-18 0,-23 0,-9 4,-14 9,-18 39,-9 87,-23 143,-46 23,-9 67,-27 134,-55 9,-11 12,-21 12,-30 z m -126,-172 c 0,7 -12,37 -14,46 0,19 0,35 2,44 -7,4 -11,5 -11,7 -2,34 -4,60 -4,80 -7,14 -34,14 -55,19 -41,12 -65,18 -73,18 h -16 c -2,-2 -4,-11 -4,-25 0,-9 11,-51 32,-129 23,-78 37,-122 42,-133 14,-23 28,-44 41,-60 9,-9 19,-12 34,-11 16,67 25,115 25,143 z"
   id="path867" />

   <path
   style="fill:#ab3235;fill-rule:nonzero"
   class="fil4"
   d="m 817,4092 19,-105 c -71,-2 -136,-32 -193,-88 -58,-60 -88,-126 -88,-200 0,-48 14,-136 42,-263 2,-10 14,-32 32,-64 5,-7 8,-14 12,-20 l -83,-148 -91,49 c 0,4 -1,9 -1,15 0,20 -4,36 -10,46 2,22 -4,48 -22,78 4,0 10,4 18,10 l -10,10 c -2,0 -2,-12 -12,-12 -10,0 -16,2 -16,8 -14,66 -20,98 -20,92 v 188 c 48,102 74,154 76,160 42,70 88,120 140,146 30,30 58,64 80,64 10,0 10,-6 20,-6 8,0 32,32 42,32 14,0 20,6 22,6 0,-6 4,-12 10,-18 12,11 23,18 34,21 z"
   id="path869" />

   <path
   class="fil3"
   style="fill:#201e1e"
   d="m 1603,3609 c 80,-28 146,-52 173,-66 37,-19 71,-44 113,-68 -12,21 -29,56 -32,92 -5,59 32,303 32,303 l -42,61 h -241 c -5,-83 -11,-189 -11,-241 0,-24 3,-52 7,-80 z"
   mask="url(#id0)"
   id="path871" />

   <path
   class="fil3"
   style="fill:#201e1e"
   d="m 2250,3406 c 78,5 132,20 169,35 -8,16 -19,40 -33,71 -48,110 -72,287 -28,418 h -170 c -44,-137 -3,-407 62,-524 z"
   mask="url(#id2)"
   id="path873" />

   <path
   class="fil3"
   style="fill:#201e1e"
   d="m 3118,3475 c 20,10 39,22 57,34 17,12 56,39 115,65 -4,14 -8,29 -15,48 -25,70 -27,108 -34,138 -5,22 -2,122 -1,169 h -321 c 19,-22 61,-69 78,-93 23,-32 50,-99 86,-176 27,-57 34,-145 36,-186 z"
   mask="url(#id4)"
   id="path875" />

   <path
   style="fill:#ab3235;fill-rule:nonzero"
   class="fil4"
   d="m 1746,3322 -18,23 7,5 18,-25 -7,-4 z m -28,44 -5,18 7,4 7,-21 h -9 z m 440,329 c 2,-44 -7,-106 -23,-184 -2,-5 -25,-25 -25,-34 0,-5 4,-5 9,0 0,2 -4,-2 -12,-14 2,-21 -2,-35 -11,-44 -51,-48 -88,-74 -108,-80 0,12 0,19 -2,21 -9,-9 -11,-14 -9,-19 -9,-2 -18,-9 -23,-21 21,-21 32,-35 32,-41 0,-28 -27,-42 -80,-42 -18,0 -46,7 -85,19 -19,7 -34,12 -44,16 -14,16 -25,28 -32,37 11,5 16,14 14,25 -19,27 -34,53 -46,81 -11,27 -25,69 -41,127 -23,78 -35,134 -35,170 0,48 7,76 21,88 l -7,9 -12,-11 c 11,21 16,39 16,55 0,11 -4,19 -9,28 7,27 12,48 14,60 11,21 39,53 83,96 55,51 96,78 126,78 9,0 23,-7 25,-7 -2,-11 0,-18 4,-21 7,16 12,23 18,21 l 53,-32 c 23,-16 39,-39 44,-69 -2,0 4,5 14,16 l 69,-117 c 39,-80 60,-150 62,-212 z m -71,-233 -7,-32 h 11 l 5,32 z m -62,-64 -9,-4 7,-18 h 7 l -5,21 z m 83,122 v -14 h 9 v 14 z m -149,-159 c -9,4 -18,0 -27,-9 l 9,-19 c 0,5 12,19 18,28 z m -34,9 c -5,-2 -11,-4 -14,-7 5,-5 7,-11 7,-12 5,5 7,11 7,19 z m 103,281 c -14,-5 -21,-12 -21,-23 0,-9 2,-16 7,-21 9,9 14,23 14,44 z m 28,53 -9,-4 7,-14 9,4 z m -50,51 c -9,42 -27,88 -50,140 -44,83 -81,126 -113,129 -25,-18 -44,-57 -60,-119 -12,-50 -18,-92 -18,-127 0,-69 18,-152 51,-248 32,-87 60,-142 85,-165 30,55 51,87 64,96 9,12 14,18 14,16 0,4 -5,7 -16,9 2,2 0,23 9,23 5,0 9,5 9,14 5,34 9,58 11,74 12,65 16,119 14,157 z m -21,110 -7,-4 12,-25 7,2 z m 41,41 v -14 h 9 v 14 z m -377,-150 h -9 l 5,-46 h 11 z"
   id="path877" />

   <path
   style="fill:#ab3235;fill-rule:nonzero"
   class="fil4"
   d="m 2295,3322 -18,23 7,5 18,-25 -7,-4 z m -28,44 -5,18 7,4 7,-21 h -9 z m 440,329 c 2,-44 -7,-106 -23,-184 -2,-5 -25,-25 -25,-34 0,-5 4,-5 9,0 0,2 -4,-2 -12,-14 2,-21 -2,-35 -11,-44 -51,-48 -88,-74 -108,-80 0,12 0,19 -2,21 -9,-9 -11,-14 -9,-19 -9,-2 -18,-9 -23,-21 21,-21 32,-35 32,-41 0,-28 -27,-42 -80,-42 -18,0 -46,7 -85,19 -19,7 -34,12 -44,16 -14,16 -25,28 -32,37 11,5 16,14 14,25 -19,27 -34,53 -46,81 -11,27 -25,69 -41,127 -23,78 -35,134 -35,170 0,48 7,76 21,88 l -7,9 -12,-11 c 11,21 16,39 16,55 0,11 -4,19 -9,28 7,27 12,48 14,60 11,21 39,53 83,96 55,51 96,78 126,78 9,0 23,-7 25,-7 -2,-11 0,-18 4,-21 7,16 12,23 18,21 l 53,-32 c 23,-16 39,-39 44,-69 -2,0 4,5 14,16 l 69,-117 c 39,-80 60,-150 62,-212 z m -71,-233 -7,-32 h 11 l 5,32 z m -62,-64 -9,-4 7,-18 h 7 l -5,21 z m 83,122 v -14 h 9 v 14 z m -149,-159 c -9,4 -18,0 -27,-9 l 9,-19 c 0,5 12,19 18,28 z m -34,9 c -5,-2 -11,-4 -14,-7 5,-5 7,-11 7,-12 5,5 7,11 7,19 z m 103,281 c -14,-5 -21,-12 -21,-23 0,-9 2,-16 7,-21 9,9 14,23 14,44 z m 28,53 -9,-4 7,-14 9,4 z m -50,51 c -9,42 -27,88 -50,140 -44,83 -81,126 -113,129 -25,-18 -44,-57 -60,-119 -12,-50 -18,-92 -18,-127 0,-69 18,-152 51,-248 32,-87 60,-142 85,-165 30,55 51,87 64,96 9,12 14,18 14,16 0,4 -5,7 -16,9 2,2 0,23 9,23 5,0 9,5 9,14 5,34 9,58 11,74 12,65 16,119 14,157 z m -21,110 -7,-4 12,-25 7,2 z m 41,41 v -14 h 9 v 14 z m -377,-150 h -9 l 5,-46 h 11 z"
   id="path879" />

   <path
   style="fill:#ab3235;fill-rule:nonzero"
   class="fil4"
   d="m 3291,3467 h -12 v 9 h 12 z m -140,7 -5,-4 5,-14 z m 195,-494 c 0,-30 -16,-48 -48,-57 -12,-3 -35,-5 -73,-5 -7,0 -16,11 -18,11 -5,-7 -9,-11 -11,-11 -9,21 -14,50 -16,85 -2,44 -1,14 -3,20 0,5 -4,12 -9,21 -5,9 -7,14 -7,18 0,9 18,16 18,21 -16,25 -13,9 -6,32 -12,21 -26,8 -20,42 3,16 4,25 -2,28 5,-14 11,-25 14,-32 4,4 5,7 5,12 0,5 2,-16 -6,11 -8,26 -7,19 -7,22 0,18 -4,39 -9,64 0,2 9,16 9,18 0,12 -2,27 -7,39 -42,-21 -67,-32 -74,-32 -7,0 -39,14 -46,14 -14,-7 -28,-11 -42,-14 -2,0 -27,7 -74,21 -57,119 -85,179 -87,180 -12,34 -21,60 -28,80 -23,65 -39,111 -44,136 -14,53 -21,80 -21,78 l -7,157 c 0,14 16,39 48,74 12,2 19,4 21,4 0,5 -5,18 -5,19 12,7 25,11 41,9 0,5 0,11 -2,14 18,23 34,34 46,32 h 14 c 0,-7 2,-11 4,-12 12,12 19,18 23,18 4,-9 7,-18 12,-27 5,12 7,21 9,27 23,2 37,2 44,4 -5,-16 4,-32 23,-46 27,-21 41,-34 42,-35 4,5 5,7 5,9 5,-16 18,-35 34,-60 16,-27 28,-39 37,-39 12,0 21,12 23,35 4,19 4,35 -2,44 0,-9 4,-9 9,-4 0,-23 5,-46 5,-46 0,2 -2,-4 -5,-19 -2,-9 0,-21 9,-37 5,-5 14,-16 19,-16 v 12 c 0,14 -4,41 -12,80 4,-12 12,-25 25,-34 2,-16 2,-27 4,-34 4,2 5,5 5,11 0,-14 5,-28 16,-41 2,-5 0,-12 -2,-21 -2,-9 -2,-16 0,-23 2,4 4,9 4,16 0,4 -2,-12 -5,-50 0,-2 2,-9 4,-23 2,-11 2,-18 0,-21 7,-2 11,-7 11,-16 0,-2 -2,-11 -4,-27 -2,-12 -2,-23 0,-30 4,0 7,2 9,5 0,-16 2,-27 4,-32 5,9 5,16 4,23 l 9,-21 -18,-14 c 0,11 -4,12 -11,5 9,-16 14,-27 16,-34 5,9 11,14 16,18 0,-16 -7,-16 -7,-21 5,-2 9,-2 11,-4 2,-18 4,-32 4,-42 5,5 9,7 11,5 -5,-16 -5,-28 -2,-39 5,-16 7,-27 7,-28 0,-7 -18,-25 -18,-27 9,-23 14,-41 16,-53 5,0 11,2 14,4 -2,-44 -4,-78 -4,-104 0,-34 2,-58 7,-71 6,-14 7,-15 5,-52 -1,-23 51,-36 6,-72 l 9,-7 c 6,-5 5,0 16,-67 12,-69 15,-57 15,-78 z m -192,1035 -5,11 7,4 5,-12 -7,-2 z m 109,114 c 0,-4 -3,5 -15,-27 -12,-30 -9,-30 -9,-40 -2,0 -5,4 -11,9 -4,-5 -5,-11 -7,-12 2,-23 -4,-41 -15,-121 2,14 0,25 -5,32 -2,-2 -4,-9 -9,-14 -7,16 -11,28 -11,37 5,0 9,2 9,5 -5,5 -11,7 -16,4 -11,99 -23,97 -23,99 0,34 -2,22 0,15 9,12 18,23 25,30 0,-5 2,-9 5,-9 7,0 4,14 12,14 7,0 2,-5 9,-5 7,0 19,27 27,32 0,0 7,-18 16,-18 9,0 16,4 18,4 v -34 z m -274,-54 -2,16 h 7 l 4,-16 z m 253,-865 v -5 l 11,-5 2,5 -12,5 z m 37,111 h -9 l 5,-30 h 9 z m -50,55 v -16 h 9 v 16 z m -53,-32 -5,-14 7,-4 5,18 z m 73,73 v -11 h 7 v 11 z m -19,19 v -44 h 9 v 44 z m -12,-9 v -12 h 7 v 12 z m 44,81 v -12 h 9 v 12 z m -64,-32 v -21 h 9 v 21 z m 28,69 -7,-2 9,-18 5,4 z m -14,41 v -12 h 9 v 12 z m -48,-32 h -7 l 5,-21 h 7 z m 41,242 -7,-4 7,-12 5,4 z m -73,-55 -7,-4 7,-11 5,2 -5,12 z m 67,90 -18,-7 c 2,0 18,-5 23,-5 z m -58,-32 -7,-2 7,-12 5,2 z m 53,81 v -18 h 7 v 18 z m -60,-416 c 0,101 -2,163 -4,182 v 34 c -5,-5 -11,-9 -14,-9 -2,12 -4,19 -5,25 -5,7 -11,12 -14,14 v 14 c -16,2 -23,12 -25,28 v 37 c -7,0 -12,-2 -16,-5 -28,37 -57,73 -87,108 -37,44 -73,71 -104,83 0,-80 2,-136 7,-170 7,-44 28,-115 62,-212 46,-133 87,-200 122,-200 30,0 78,28 78,71 z m 12,435 -7,-4 5,-11 7,2 -5,12 z m -44,30 h -9 l 5,-30 h 7 l -4,30 z m 101,122 -5,-57 h 9 l 4,57 h -7 z"
   id="path881" />

  </g>
  </g>
</svg>
